HIERARCHY
ROOT hips
{
	OFFSET 0.000000 104.274902 0.000000
	CHANNELS 6 Xposition Yposition Zposition Xrotation Yrotation Zrotation
	JOINT spine
	{
		OFFSET 0.000000 10.181549 0.131524
		CHANNELS 6 Xposition Yposition Zposition Xrotation Yrotation Zrotation
		JOINT chest
		{
			OFFSET 0.000000 9.893990 -1.470706
			CHANNELS 3 Xrotation Yrotation Zrotation
			JOINT upperChest
			{
				OFFSET 0.000000 9.220787 -1.370637
				CHANNELS 3 Xrotation Yrotation Zrotation
				JOINT neck
				{
					OFFSET 0.000000 16.740372 -2.049022
					CHANNELS 6 Xposition Yposition Zposition Xrotation Yrotation Zrotation
					JOINT head
					{
						OFFSET 0.000000 9.617859 1.684976
						CHANNELS 6 Xposition Yposition Zposition Xrotation Yrotation Zrotation
						JOINT headEnd
						{
							OFFSET 0.000000 22.037384 7.501072
							CHANNELS 6 Xposition Yposition Zposition Xrotation Yrotation Zrotation
							End Site
							{
								OFFSET 0.000000 23.106567 -2.828246
							}
						}
					}
				}
				JOINT rightShoulder
				{
					OFFSET -4.570000 11.014877 -2.160840
					CHANNELS 6 Xposition Yposition Zposition Xrotation Yrotation Zrotation
					JOINT rightUpperArm
					{
						OFFSET -10.592867 -0.524796 -2.232105
						CHANNELS 3 Xrotation Yrotation Zrotation
						JOINT rightLowerArm
						{
							OFFSET -27.841497 0.000000 -0.000002
							CHANNELS 3 Xrotation Yrotation Zrotation
							JOINT rightHand
							{
								OFFSET -28.328812 0.000000 -0.000001
								CHANNELS 3 Xrotation Yrotation Zrotation
								JOINT rightThumbProximal
								{
									OFFSET -2.464798 -1.573990 2.681911
									CHANNELS 6 Xposition Yposition Zposition Xrotation Yrotation Zrotation
									JOINT rightThumbIntermediate
									{
										OFFSET -3.244781 -1.873383 1.873376
										CHANNELS 3 Xrotation Yrotation Zrotation
										JOINT rightThumbDistal
										{
											OFFSET -2.646263 -1.527817 1.527818
											CHANNELS 6 Xposition Yposition Zposition Xrotation Yrotation Zrotation
											JOINT rightHandThumb4
											{
												OFFSET -1.994591 -1.151581 1.151575
												CHANNELS 6 Xposition Yposition Zposition Xrotation Yrotation Zrotation
												End Site
												{
													OFFSET -1.860176 -1.142715 1.365483
												}
											}
										}
									}
								}
								JOINT rightIndexProximal
								{
									OFFSET -9.108299 -0.517883 2.259803
									CHANNELS 6 Xposition Yposition Zposition Xrotation Yrotation Zrotation
									JOINT rightIndexIntermediate
									{
										OFFSET -3.699997 0.000000 0.000000
										CHANNELS 3 Xrotation Yrotation Zrotation
										JOINT rightIndexDistal
										{
											OFFSET -2.850006 0.000000 0.000000
											CHANNELS 3 Xrotation Yrotation Zrotation
											JOINT rightHandIndex4
											{
												OFFSET -2.772194 0.000000 0.000000
												CHANNELS 3 Xrotation Yrotation Zrotation
												End Site
												{
													OFFSET -2.772202 0.000000 -0.000484
												}
											}
										}
									}
								}
								JOINT rightMiddleProximal
								{
									OFFSET -9.532501 0.000000 -0.000000
									CHANNELS 6 Xposition Yposition Zposition Xrotation Yrotation Zrotation
									JOINT rightMiddleIntermediate
									{
										OFFSET -3.699997 0.000000 0.000000
										CHANNELS 3 Xrotation Yrotation Zrotation
										JOINT rightMiddleDistal
										{
											OFFSET -2.949997 0.000000 0.000000
											CHANNELS 3 Xrotation Yrotation Zrotation
											JOINT rightHandMiddle4
											{
												OFFSET -2.946594 0.000000 0.000000
												CHANNELS 3 Xrotation Yrotation Zrotation
												End Site
												{
													OFFSET -2.946602 0.000000 -0.000982
												}
											}
										}
									}
								}
								JOINT rightRingProximal
								{
									OFFSET -9.103600 -0.043106 -1.865100
									CHANNELS 6 Xposition Yposition Zposition Xrotation Yrotation Zrotation
									JOINT rightRingIntermediate
									{
										OFFSET -3.379303 0.000000 0.000000
										CHANNELS 3 Xrotation Yrotation Zrotation
										JOINT rightRingDistal
										{
											OFFSET -2.889694 0.000000 0.000000
											CHANNELS 3 Xrotation Yrotation Zrotation
											JOINT rightHandRing4
											{
												OFFSET -2.638802 0.000000 0.000000
												CHANNELS 3 Xrotation Yrotation Zrotation
												End Site
												{
													OFFSET -2.638802 0.000000 0.004218
												}
											}
										}
									}
								}
								JOINT rightLittleProximal
								{
									OFFSET -8.076698 -0.486725 -3.806299
									CHANNELS 6 Xposition Yposition Zposition Xrotation Yrotation Zrotation
									JOINT rightLittleIntermediate
									{
										OFFSET -3.600006 0.000000 0.000000
										CHANNELS 3 Xrotation Yrotation Zrotation
										JOINT rightLittleDistal
										{
											OFFSET -2.099998 0.000000 0.000000
											CHANNELS 3 Xrotation Yrotation Zrotation
											JOINT rightHandPinky4
											{
												OFFSET -2.115791 0.000000 0.000000
												CHANNELS 3 Xrotation Yrotation Zrotation
												End Site
												{
													OFFSET -2.115799 0.000000 0.000174
												}
											}
										}
									}
								}
							}
						}
					}
				}
				JOINT leftShoulder
				{
					OFFSET 4.570400 11.014679 -2.160816
					CHANNELS 6 Xposition Yposition Zposition Xrotation Yrotation Zrotation
					JOINT leftUpperArm
					{
						OFFSET 10.592373 -0.524597 -2.232116
						CHANNELS 3 Xrotation Yrotation Zrotation
						JOINT leftLowerArm
						{
							OFFSET 27.841488 0.000000 0.000001
							CHANNELS 3 Xrotation Yrotation Zrotation
							JOINT leftHand
							{
								OFFSET 28.328808 0.000000 -0.000000
								CHANNELS 3 Xrotation Yrotation Zrotation
								JOINT leftThumbProximal
								{
									OFFSET 2.466103 -1.576202 2.681698
									CHANNELS 6 Xposition Yposition Zposition Xrotation Yrotation Zrotation
									JOINT leftThumbIntermediate
									{
										OFFSET 3.243317 -1.872528 1.872530
										CHANNELS 3 Xrotation Yrotation Zrotation
										JOINT leftThumbDistal
										{
											OFFSET 2.647881 -1.528763 1.528754
											CHANNELS 6 Xposition Yposition Zposition Xrotation Yrotation Zrotation
											JOINT leftHandThumb4
											{
												OFFSET 1.998924 -1.154083 1.154080
												CHANNELS 6 Xposition Yposition Zposition Xrotation Yrotation Zrotation
												End Site
												{
													OFFSET 1.884041 -1.149155 1.337651
												}
											}
										}
									}
								}
								JOINT leftIndexProximal
								{
									OFFSET 9.109299 -0.518005 2.259900
									CHANNELS 6 Xposition Yposition Zposition Xrotation Yrotation Zrotation
									JOINT leftIndexIntermediate
									{
										OFFSET 3.699997 0.000000 0.000000
										CHANNELS 3 Xrotation Yrotation Zrotation
										JOINT leftIndexDistal
										{
											OFFSET 2.850006 0.000000 0.000000
											CHANNELS 3 Xrotation Yrotation Zrotation
											JOINT leftHandIndex4
											{
												OFFSET 2.774895 0.000000 0.000000
												CHANNELS 3 Xrotation Yrotation Zrotation
												End Site
												{
													OFFSET 2.774902 0.000000 -0.000072
												}
											}
										}
									}
								}
								JOINT leftMiddleProximal
								{
									OFFSET 9.533401 0.000000 0.000000
									CHANNELS 6 Xposition Yposition Zposition Xrotation Yrotation Zrotation
									JOINT leftMiddleIntermediate
									{
										OFFSET 3.699997 0.000000 0.000000
										CHANNELS 3 Xrotation Yrotation Zrotation
										JOINT leftMiddleDistal
										{
											OFFSET 2.949997 0.000000 0.000000
											CHANNELS 3 Xrotation Yrotation Zrotation
											JOINT leftHandMiddle4
											{
												OFFSET 2.952896 0.000000 0.000000
												CHANNELS 3 Xrotation Yrotation Zrotation
												End Site
												{
													OFFSET 2.952904 0.000000 0.000165
												}
											}
										}
									}
								}
								JOINT leftRingProximal
								{
									OFFSET 9.104500 -0.042999 -1.865101
									CHANNELS 6 Xposition Yposition Zposition Xrotation Yrotation Zrotation
									JOINT leftRingIntermediate
									{
										OFFSET 3.149994 0.000000 0.000000
										CHANNELS 3 Xrotation Yrotation Zrotation
										JOINT leftRingDistal
										{
											OFFSET 2.950005 0.000000 0.000000
											CHANNELS 3 Xrotation Yrotation Zrotation
											JOINT leftHandRing4
											{
												OFFSET 2.644302 0.000000 0.000000
												CHANNELS 3 Xrotation Yrotation Zrotation
												End Site
												{
													OFFSET 2.644302 0.000000 0.000083
												}
											}
										}
									}
								}
								JOINT leftLittleProximal
								{
									OFFSET 8.077805 -0.486893 -3.806302
									CHANNELS 6 Xposition Yposition Zposition Xrotation Yrotation Zrotation
									JOINT leftLittleIntermediate
									{
										OFFSET 3.600006 0.000000 0.000000
										CHANNELS 3 Xrotation Yrotation Zrotation
										JOINT leftLittleDistal
										{
											OFFSET 2.099998 0.000000 0.000000
											CHANNELS 3 Xrotation Yrotation Zrotation
											JOINT leftHandPinky4
											{
												OFFSET 2.125496 0.000000 0.000000
												CHANNELS 3 Xrotation Yrotation Zrotation
												End Site
												{
													OFFSET 2.125504 0.000000 -0.001254
												}
											}
										}
									}
								}
							}
						}
					}
				}
			}
		}
	}
	JOINT rightUpperLeg
	{
		OFFSET -8.207800 -6.751701 -1.599544
		CHANNELS 6 Xposition Yposition Zposition Xrotation Yrotation Zrotation
		JOINT rightLowerLeg
		{
			OFFSET 0.000004 -44.370152 0.345934
			CHANNELS 3 Xrotation Yrotation Zrotation
			JOINT rightFoot
			{
				OFFSET 0.000004 -44.423664 -3.043535
				CHANNELS 3 Xrotation Yrotation Zrotation
				JOINT rightToes
				{
					OFFSET 0.000001 -8.728691 10.710592
					CHANNELS 3 Xrotation Yrotation Zrotation
					JOINT rightToesEnd
					{
						OFFSET 0.000000 -0.000665 9.278101
						CHANNELS 3 Xrotation Yrotation Zrotation
						End Site
						{
							OFFSET 0.000000 -0.000665 9.278103
						}
					}
				}
			}
		}
	}
	JOINT leftUpperLeg
	{
		OFFSET 8.207800 -6.751701 -1.599544
		CHANNELS 6 Xposition Yposition Zposition Xrotation Yrotation Zrotation
		JOINT leftLowerLeg
		{
			OFFSET 0.000004 -44.370037 0.346940
			CHANNELS 3 Xrotation Yrotation Zrotation
			JOINT leftFoot
			{
				OFFSET 0.000004 -44.423611 -3.044388
				CHANNELS 3 Xrotation Yrotation Zrotation
				JOINT leftToes
				{
					OFFSET 0.000001 -8.728690 10.710592
					CHANNELS 3 Xrotation Yrotation Zrotation
					JOINT leftToesEnd
					{
						OFFSET 0.000000 -0.000680 9.278101
						CHANNELS 3 Xrotation Yrotation Zrotation
						End Site
						{
							OFFSET 0.000000 -0.000680 9.278101
						}
					}
				}
			}
		}
	}
}
MOTION
Frames: 4
Frame Time: 0.033333
-1.549319 98.689461 4.420369 2.130941 -22.297176 2.992936 0.000000 10.181553 0.131524 -1.441876 2.272187 -2.923821 2.695024 0.287347 0.233137 2.692665 0.300608 0.243933 -0.000000 16.740366 -2.049019 0.292329 1.506422 -0.701143 -0.000003 9.617856 1.684975 -5.021155 9.914257 -11.697783 0.000001 22.037354 7.501076 -0.000000 0.000000 -0.000000 -4.570000 11.014866 -2.160840 -0.268280 -2.240983 -7.547281 -73.923820 -3.121848 33.080624 0.000132 138.777464 -0.000046 -43.442503 15.756929 -4.149383 -2.464801 -1.573995 2.681911 -2.620259 -23.323395 -9.850518 4.637202 -8.634130 -0.225385 -2.646277 -1.527824 1.527818 -1.273758 0.137309 -2.094870 -1.994590 -1.151586 1.151580 0.000001 -0.000005 -0.000000 -9.108297 -0.517902 2.259805 0.001557 0.147785 -1.212824 0.021552 -0.548192 4.503039 0.021559 -0.548193 4.503023 -0.000002 -0.000001 0.000002 -9.532508 -0.000004 0.000000 0.000418 -0.076285 0.625946 0.037888 -0.726392 5.971687 0.038913 -0.736096 6.051661 -0.000002 -0.000001 0.000001 -9.103599 -0.043109 -1.865100 0.009035 -0.355023 2.914476 0.065741 -0.955890 7.869136 0.066582 -0.961915 7.919049 0.000000 0.000001 0.000002 -8.076700 -0.486723 -3.806298 0.024239 -0.581453 4.776874 0.093221 -1.136943 9.372299 0.093199 -1.136946 9.372288 -0.000004 -0.000001 -0.000000 4.570397 11.014689 -2.160814 -0.463847 1.396761 14.936179 -79.008152 22.037853 -17.906166 0.000005 -135.486788 0.000011 -59.717034 -5.433116 -14.966077 2.466087 -1.576226 2.681705 -3.091681 17.377840 12.080262 3.939029 7.948698 0.746788 2.647878 -1.528742 1.528751 -0.579457 1.575017 2.538722 1.998920 -1.154083 1.154073 0.000003 0.000000 0.000005 9.109299 -0.518014 2.259902 0.003951 -0.233703 1.936872 -0.000007 0.000001 -0.000022 0.064643 -0.943103 7.839936 -0.000002 -0.000001 -0.000001 9.533396 -0.000016 0.000003 0.030696 0.650934 -5.402082 0.000008 -0.000059 0.000208 0.037980 -0.723700 6.008062 -0.000000 0.000001 0.000001 9.104491 -0.043011 -1.865099 0.077885 1.034943 -8.609085 0.000004 -0.000014 0.000081 0.015477 -0.462234 3.833151 -0.000001 0.000001 -0.000002 8.077785 -0.486915 -3.806298 0.438503 4.748105 -5.433487 -0.018112 -4.056673 -0.491010 0.004717 -0.255386 2.116672 -0.000001 -0.000001 -0.000002 -8.207802 -6.751709 -1.599544 -24.102411 -0.005493 -10.359115 35.478653 2.107484 2.466174 -13.321856 -0.618929 4.525113 -1.004379 0.000003 -0.000002 0.000000 0.000002 0.000000 8.207799 -6.751703 -1.599544 -13.887932 4.185987 3.607361 30.732959 10.069408 4.452753 -13.988986 17.124227 -12.798171 -0.220173 -0.000005 -0.000000 0.000000 -0.000001 0.000000 
-1.910741 98.741974 4.470789 1.212821 -22.625992 1.980019 0.000000 10.181550 0.131521 -0.733522 3.936026 -2.823372 2.861804 0.525760 0.669691 2.854327 0.538926 0.689759 0.000000 16.740345 -2.049017 0.652110 1.509890 -0.819968 -0.000000 9.617842 1.684976 -4.052350 9.779436 -11.813242 -0.000004 22.037338 7.501077 -0.000000 -0.000000 0.000000 -4.570001 11.014874 -2.160838 -0.166616 -1.620546 -6.915470 -70.071710 -3.628535 33.506862 0.000105 138.769227 -0.000052 -42.546601 16.481310 -4.335048 -2.464815 -1.574001 2.681910 -2.620268 -23.323382 -9.850545 4.637200 -8.634125 -0.225380 -2.646264 -1.527789 1.527820 -1.273757 0.137309 -2.094872 -1.994590 -1.151600 1.151581 -0.000002 -0.000005 -0.000000 -9.108318 -0.517897 2.259800 0.009645 0.367110 -3.013796 0.013812 -0.438729 3.602502 0.013797 -0.438728 3.602479 0.000001 0.000001 0.000000 -9.532504 -0.000023 -0.000001 0.001788 0.158026 -1.296857 0.026345 -0.605990 4.979039 0.027573 -0.619963 5.094004 0.000001 -0.000000 0.000001 -9.103614 -0.043134 -1.865098 0.000719 -0.100473 0.824460 0.048972 -0.825489 6.790084 0.050252 -0.836140 6.878033 0.000001 0.000003 0.000006 -8.076706 -0.486760 -3.806299 0.006844 -0.309229 2.538257 0.072308 -1.002156 8.252667 0.072300 -1.002150 8.252681 0.000003 -0.000000 0.000000 4.570397 11.014672 -2.160814 -0.879555 3.103878 15.589908 -81.144498 20.750077 -18.838241 0.000014 -137.008076 0.000011 -61.337414 -7.608753 -12.219180 2.466098 -1.576234 2.681704 -3.091684 17.377839 12.080266 3.939028 7.948699 0.746791 2.647888 -1.528763 1.528752 -0.579461 1.575013 2.538718 1.998924 -1.154109 1.154077 -0.000001 0.000002 0.000003 9.109278 -0.518036 2.259907 0.005936 -0.286316 2.373180 -0.000004 -0.000000 -0.000029 0.015699 -0.465622 3.861187 0.000001 0.000000 -0.000002 9.533400 -0.000016 0.000003 0.013278 0.428201 -3.550474 -0.000013 -0.000073 0.000041 0.005286 -0.270183 2.239405 0.000000 0.000000 0.000003 9.104497 -0.043024 -1.865097 0.043181 0.771651 -6.407912 0.000446 0.078036 -0.646614 0.000078 -0.033005 0.273559 -0.000000 0.000001 -0.000002 8.077803 -0.486910 -3.806295 0.315604 4.576294 -3.921498 -0.014805 -3.894188 -1.837560 0.001851 0.160097 -1.326717 0.000000 -0.000002 0.000006 -8.207800 -6.751721 -1.599539 -23.071047 -0.514250 -9.162840 35.264974 2.185847 1.849417 -13.329626 -0.613327 4.490467 -1.130737 0.000000 -0.000001 0.000000 -0.000002 -0.000000 8.207801 -6.751686 -1.599544 -12.841505 3.954573 4.450316 30.726627 9.952990 4.470443 -14.006208 17.638984 -13.079966 -0.251006 0.000004 -0.000004 -0.000000 -0.000000 0.000000 
-2.245361 98.342415 4.447411 -0.428045 -23.540947 0.533199 0.000000 10.181542 0.131523 0.253682 5.946500 -2.674279 3.263255 0.814666 1.268892 3.245006 0.832070 1.302569 0.000000 16.740377 -2.049021 1.306691 1.551797 -0.878755 0.000001 9.617863 1.684974 -2.655491 10.058977 -12.325597 -0.000002 22.037369 7.501072 -0.000000 0.000000 -0.000000 -4.570001 11.014872 -2.160840 0.032127 -0.435076 -5.702147 -64.326284 -4.346492 33.553523 0.000113 138.703602 -0.000063 -40.083590 15.542387 -5.045018 -2.464807 -1.573996 2.681902 -2.620263 -23.323385 -9.850527 4.637199 -8.634127 -0.225387 -2.646252 -1.527776 1.527814 -1.273757 0.137307 -2.094873 -1.994594 -1.151567 1.151578 0.000000 -0.000007 0.000001 -9.108303 -0.517866 2.259797 0.017309 0.491244 -4.034346 0.010164 -0.376657 3.092218 0.010165 -0.376654 3.092230 0.000000 0.000000 -0.000001 -9.532502 0.000016 -0.000005 0.006912 0.310611 -2.549575 0.019949 -0.527450 4.332367 0.021250 -0.544196 4.470130 -0.000000 0.000000 -0.000001 -9.103603 -0.043111 -1.865107 0.000561 0.088591 -0.726928 0.038121 -0.728511 5.989168 0.039601 -0.742592 6.105335 0.000000 0.000003 0.000007 -8.076697 -0.486727 -3.806299 0.000582 -0.089701 0.736029 0.057385 -0.893350 7.351333 0.057382 -0.893359 7.351338 0.000004 0.000000 0.000003 4.570395 11.014706 -2.160816 -1.191727 4.376404 15.848556 -79.761221 18.663448 -22.125274 -0.000020 -137.846277 -0.000016 -61.193215 -9.476829 -8.891555 2.466113 -1.576203 2.681695 -3.091684 17.377840 12.080252 3.939026 7.948699 0.746795 2.647896 -1.528751 1.528754 -0.579462 1.575015 2.538721 1.998905 -1.154093 1.154080 0.000001 0.000003 0.000005 9.109312 -0.518001 2.259892 0.002511 -0.186329 1.544120 0.001486 0.143169 -1.186398 0.001478 0.143177 -1.186374 0.000002 0.000000 -0.000001 9.533410 0.000018 -0.000006 0.009235 0.357329 -2.962222 0.007264 0.316990 -2.627650 0.006826 0.307250 -2.546786 -0.000001 0.000000 0.000003 9.104512 -0.042989 -1.865109 0.029425 0.637276 -5.288303 0.019874 0.523992 -4.346305 0.019315 0.516511 -4.284045 0.000000 -0.000002 -0.000001 8.077836 -0.486864 -3.806310 0.283602 4.529930 -3.518362 0.023059 -3.360773 -6.267368 0.034887 0.693820 -5.759145 0.000002 -0.000001 -0.000000 -8.207803 -6.751719 -1.599540 -22.298802 -1.058283 -7.250784 36.753364 2.703019 0.114434 -14.147010 -0.709465 4.808038 -1.263351 0.000002 -0.000002 0.000000 0.000002 0.000000 8.207799 -6.751710 -1.599544 -12.053208 4.691329 5.711717 32.580760 9.671509 4.702871 -14.982423 17.946582 -13.625155 -0.187187 -0.000006 0.000004 0.000000 0.000001 0.000000 
-2.504675 97.470520 4.372216 -3.131749 -24.912246 -1.578337 -0.000000 10.181546 0.131524 1.774935 8.249472 -2.381896 3.883038 1.147767 2.001176 3.846117 1.175909 2.053823 -0.000000 16.740374 -2.049019 2.090747 1.656560 -1.052458 -0.000002 9.617828 1.684976 -1.385236 10.651975 -13.060724 -0.000001 22.037369 7.501073 -0.000000 0.000000 0.000001 -4.569999 11.014857 -2.160840 0.345724 1.506691 -3.776806 -57.377025 -5.407107 33.017336 0.000123 138.608690 -0.000037 -36.438366 12.755809 -6.331197 -2.464777 -1.574009 2.681914 -2.620272 -23.323377 -9.850530 4.637198 -8.634126 -0.225385 -2.646283 -1.527804 1.527824 -1.273758 0.137312 -2.094870 -1.994613 -1.151585 1.151586 0.000003 -0.000002 0.000003 -9.108287 -0.517883 2.259805 0.017241 0.490454 -4.027877 0.010193 -0.377045 3.095465 0.010179 -0.377043 3.095457 -0.000002 0.000001 0.000005 -9.532487 -0.000007 0.000001 0.008680 0.348106 -2.857660 0.018513 -0.508127 4.173351 0.019805 -0.525549 4.316696 0.000000 0.000001 0.000004 -9.103595 -0.043091 -1.865102 0.002161 0.174019 -1.428111 0.033639 -0.684621 5.627170 0.035213 -0.700259 5.756103 0.000003 -0.000001 0.000001 -8.076686 -0.486718 -3.806299 0.000075 0.034906 -0.286385 0.049696 -0.831537 6.839998 0.049682 -0.831534 6.839999 0.000000 0.000001 0.000006 4.570399 11.014686 -2.160815 -1.265738 4.826390 15.501912 -76.044635 15.687623 -25.437390 0.000017 -138.037495 0.000016 -60.010834 -10.835085 -4.619984 2.466102 -1.576216 2.681701 -3.091685 17.377839 12.080258 3.939028 7.948700 0.746791 2.647879 -1.528749 1.528751 -0.579462 1.575013 2.538718 1.998924 -1.154110 1.154075 -0.000001 0.000000 0.000003 9.109290 -0.518006 2.259901 0.000920 -0.112089 0.928858 0.026111 0.600457 -4.981899 0.026121 0.600450 -4.981905 0.000001 0.000000 0.000000 9.533407 0.000003 -0.000001 0.006823 0.307143 -2.545953 0.035594 0.700637 -5.815867 0.039642 0.739503 -6.139793 0.000000 0.000001 -0.000000 9.104509 -0.042980 -1.865101 0.021217 0.541334 -4.490380 0.056868 0.885041 -7.354439 0.062334 0.926392 -7.700013 -0.000001 -0.000000 0.000000 8.077820 -0.486887 -3.806301 0.257822 4.492046 -3.190483 0.078461 -2.963468 -9.588691 0.086700 1.091597 -9.084339 0.000000 0.000000 0.000001 -8.207801 -6.751717 -1.599541 -21.380980 -2.145506 -4.908037 39.808856 3.961111 -2.538497 -15.726965 -0.871713 5.227849 -1.362624 0.000002 0.000002 -0.000000 -0.000000 0.000000 8.207799 -6.751703 -1.599545 -11.127527 5.813184 7.339518 36.154654 9.261630 5.011093 -16.877971 18.460765 -14.315445 -0.025979 0.000007 0.000000 -0.000000 -0.000000 0.000000 
